<svg xmlns="http://www.w3.org/2000/svg" viewBox="0 0 48 48" id="Transport">
  <g transform="translate(0 -1004.362)" fill="#000000" class="color000000 svgShape">
    <circle cx="24" cy="1028.362" r="24" fill="#e6294d" class="color1d67b1 svgShape"></circle>
    <path fill="#ffffff" d="M8.514 1018.362a.5.5 0 0 0-.5.5v11.957a.5.5 0 0 0 0 .075v1.851a.5.5 0 0 0 0 .236v1.881a.5.5 0 0 0 .5.5h4.55c-.023.165-.05.33-.05.5 0 1.927 1.573 3.5 3.5 3.5s3.5-1.573 3.5-3.5c0-.17-.027-.335-.05-.5H29.563c-.023.165-.05.33-.05.5 0 1.927 1.573 3.5 3.5 3.5s3.5-1.573 3.5-3.5c0-.17-.027-.335-.05-.5h3.05a.5.5 0 0 0 .5-.5v-8a.5.5 0 0 0-.22-.414l-5.176-5.914a.5.5 0 0 0-.377-.172h-5.227v-1.5a.5.5 0 0 0-.5-.5h-20zm.5 1h19v1.418a.5.5 0 0 0 0 .164v9.418h-19v-11zm1.992 1a.5.5 0 0 0-.492.508v7.992a.5.5 0 1 0 1 0v-7.992a.5.5 0 0 0-.508-.508zm3 0a.5.5 0 0 0-.492.508v7.992a.5.5 0 1 0 1 0v-7.992a.5.5 0 0 0-.508-.508zm3 0a.5.5 0 0 0-.492.508v7.992a.5.5 0 1 0 1 0v-7.992a.5.5 0 0 0-.508-.508zm3 0a.5.5 0 0 0-.492.508v7.992a.5.5 0 1 0 1 0v-7.992a.5.5 0 0 0-.508-.508zm3 0a.5.5 0 0 0-.492.508v7.992a.5.5 0 1 0 1 0v-7.992a.5.5 0 0 0-.508-.508zm3 0a.5.5 0 0 0-.492.508v7.992a.5.5 0 1 0 1 0v-7.992a.5.5 0 0 0-.508-.508zm3.008 1h5l4.375 5h-9.375v-5zm0 6h10v2h-1.5a.5.5 0 0 0-.5.5v2a.5.5 0 0 0 .5.5h1.5v2h-2.851a3.498 3.498 0 0 0-3.149-2 3.498 3.498 0 0 0-3.148 2h-.852v-7zm1.442 1.5a.5.5 0 0 0 .05 1h1.014a.5.5 0 1 0 0-1h-1.014a.5.5 0 0 0-.05 0zm7.558 1.5h1v1h-1v-1zm-29 1h19V1034.363H19.663a3.498 3.498 0 0 0-3.149-2 3.498 3.498 0 0 0-3.148 2H9.014v-1h1.492a.5.5 0 1 0 0-1H9.014v-1zm7.5 2c1.387 0 2.5 1.114 2.5 2.5 0 1.387-1.113 2.5-2.5 2.5a2.492 2.492 0 0 1-2.5-2.5c0-1.386 1.114-2.5 2.5-2.5zm16.5 0c1.387 0 2.5 1.114 2.5 2.5 0 1.387-1.113 2.5-2.5 2.5a2.492 2.492 0 0 1-2.5-2.5c0-1.386 1.114-2.5 2.5-2.5zm-16.5 1c-.822 0-1.5.678-1.5 1.5 0 .823.678 1.5 1.5 1.5.823 0 1.5-.677 1.5-1.5 0-.822-.677-1.5-1.5-1.5zm16.5 0c-.822 0-1.5.678-1.5 1.5 0 .823.678 1.5 1.5 1.5.823 0 1.5-.677 1.5-1.5 0-.822-.677-1.5-1.5-1.5zm-16.5 1c.282 0 .5.218.5.5 0 .283-.218.5-.5.5a.493.493 0 0 1-.5-.5c0-.282.218-.5.5-.5zm16.5 0c.282 0 .5.218.5.5 0 .283-.218.5-.5.5a.493.493 0 0 1-.5-.5c0-.282.218-.5.5-.5z" color="#000" font-family="sans-serif" font-weight="400" overflow="visible" style="line-height:normal;text-indent:0;text-align:start;text-decoration-line:none;text-decoration-style:solid;text-decoration-color:#000;text-transform:none;block-progression:tb;isolation:auto;mix-blend-mode:normal" class="colorffffff svgShape"></path>
  </g>
</svg>